<svg width="70" height="22" viewBox="0 0 70 22" fill="none" xmlns="http://www.w3.org/2000/svg">
<rect width="70" height="22" rx="11" fill="#2b2e35"/>
<path d="M32.6165 14V8.90909H35.669V9.45597H33.233V11.1761H35.4403V11.723H33.233V14H32.6165ZM36.6453 14V10.1818H37.232V14H36.6453ZM36.9436 9.54545C36.8293 9.54545 36.7307 9.50651 36.6478 9.42862C36.5666 9.35073 36.526 9.2571 36.526 9.14773C36.526 9.03835 36.5666 8.94472 36.6478 8.86683C36.7307 8.78894 36.8293 8.75 36.9436 8.75C37.058 8.75 37.1557 8.78894 37.2369 8.86683C37.3198 8.94472 37.3612 9.03835 37.3612 9.14773C37.3612 9.2571 37.3198 9.35073 37.2369 9.42862C37.1557 9.50651 37.058 9.54545 36.9436 9.54545ZM39.8477 15.5114C39.5643 15.5114 39.3207 15.4749 39.1168 15.402C38.913 15.3307 38.7431 15.2363 38.6072 15.1186C38.473 15.0026 38.3661 14.8783 38.2866 14.7457L38.7539 14.4176C38.8069 14.4872 38.8741 14.5668 38.9553 14.6562C39.0365 14.7474 39.1475 14.8261 39.2884 14.8924C39.4309 14.9603 39.6173 14.9943 39.8477 14.9943C40.1559 14.9943 40.4103 14.9197 40.6108 14.7706C40.8113 14.6214 40.9116 14.3878 40.9116 14.0696V13.294H40.8619C40.8188 13.3636 40.7575 13.4498 40.6779 13.5526C40.6 13.6536 40.4873 13.744 40.3398 13.8235C40.194 13.9014 39.9968 13.9403 39.7482 13.9403C39.44 13.9403 39.1632 13.8674 38.918 13.7216C38.6744 13.5758 38.4813 13.3636 38.3388 13.0852C38.1979 12.8068 38.1275 12.4687 38.1275 12.071C38.1275 11.6799 38.1963 11.3394 38.3338 11.0494C38.4714 10.7577 38.6628 10.5323 38.908 10.3732C39.1533 10.2125 39.4367 10.1321 39.7582 10.1321C40.0067 10.1321 40.204 10.1735 40.3498 10.2564C40.4973 10.3376 40.61 10.4304 40.6879 10.5348C40.7674 10.6375 40.8287 10.7221 40.8718 10.7884H40.9315V10.1818H41.4982V14.1094C41.4982 14.4375 41.4237 14.7043 41.2745 14.9098C41.127 15.117 40.9281 15.2686 40.6779 15.3647C40.4293 15.4625 40.1526 15.5114 39.8477 15.5114ZM39.8278 13.4134C40.0631 13.4134 40.262 13.3595 40.4244 13.2518C40.5868 13.1441 40.7102 12.9891 40.7947 12.7869C40.8793 12.5848 40.9215 12.3428 40.9215 12.0611C40.9215 11.786 40.8801 11.5432 40.7972 11.3327C40.7144 11.1223 40.5917 10.9574 40.4293 10.8381C40.2669 10.7187 40.0664 10.6591 39.8278 10.6591C39.5792 10.6591 39.372 10.7221 39.2063 10.848C39.0423 10.974 38.9188 11.143 38.8359 11.3551C38.7547 11.5672 38.7141 11.8026 38.7141 12.0611C38.7141 12.3262 38.7556 12.5607 38.8384 12.7646C38.9229 12.9667 39.0472 13.1258 39.2113 13.2418C39.377 13.3562 39.5825 13.4134 39.8278 13.4134ZM42.5721 14V10.1818H43.1388V10.7784H43.1886C43.2681 10.5746 43.3965 10.4163 43.5739 10.3036C43.7512 10.1893 43.9641 10.1321 44.2127 10.1321C44.4646 10.1321 44.6742 10.1893 44.8416 10.3036C45.0107 10.4163 45.1424 10.5746 45.2369 10.7784H45.2766C45.3744 10.5812 45.5211 10.4246 45.7166 10.3086C45.9122 10.1909 46.1467 10.1321 46.4201 10.1321C46.7615 10.1321 47.0407 10.239 47.2578 10.4528C47.4749 10.6649 47.5835 10.9955 47.5835 11.4446V14H46.9968V11.4446C46.9968 11.1629 46.9197 10.9615 46.7656 10.8406C46.6115 10.7196 46.43 10.6591 46.2212 10.6591C45.9528 10.6591 45.7448 10.7403 45.5973 10.9027C45.4498 11.0634 45.3761 11.2673 45.3761 11.5142V14H44.7795V11.3849C44.7795 11.1679 44.709 10.993 44.5682 10.8604C44.4273 10.7262 44.2459 10.6591 44.0238 10.6591C43.8713 10.6591 43.7288 10.6997 43.5962 10.7809C43.4653 10.8621 43.3593 10.9748 43.2781 11.119C43.1985 11.2615 43.1587 11.4264 43.1587 11.6136V14H42.5721ZM49.7797 14.0895C49.5377 14.0895 49.3181 14.0439 49.1209 13.9528C48.9237 13.86 48.7671 13.7266 48.6511 13.5526C48.5351 13.3769 48.4771 13.1648 48.4771 12.9162C48.4771 12.6974 48.5202 12.5201 48.6064 12.3842C48.6925 12.2467 48.8077 12.139 48.9519 12.0611C49.0961 11.9832 49.2551 11.9252 49.4292 11.8871C49.6048 11.8473 49.7813 11.8158 49.9586 11.7926C50.1906 11.7628 50.3787 11.7404 50.5229 11.7255C50.6687 11.7089 50.7748 11.6816 50.8411 11.6435C50.909 11.6054 50.943 11.5391 50.943 11.4446V11.4247C50.943 11.1795 50.8759 10.9889 50.7417 10.853C50.6091 10.7171 50.4077 10.6491 50.1376 10.6491C49.8575 10.6491 49.638 10.7105 49.4789 10.8331C49.3198 10.9557 49.2079 11.0866 49.1433 11.2259L48.5865 11.027C48.6859 10.795 48.8185 10.6143 48.9842 10.4851C49.1516 10.3542 49.3339 10.263 49.5311 10.2116C49.7299 10.1586 49.9255 10.1321 50.1177 10.1321C50.2404 10.1321 50.3812 10.147 50.5403 10.1768C50.7011 10.205 50.856 10.2638 51.0051 10.3533C51.156 10.4428 51.2811 10.5779 51.3805 10.7585C51.4799 10.9392 51.5297 11.1811 51.5297 11.4844V14H50.943V13.483H50.9132C50.8734 13.5658 50.8071 13.6545 50.7143 13.7489C50.6215 13.8434 50.498 13.9238 50.3439 13.9901C50.1898 14.0563 50.0017 14.0895 49.7797 14.0895ZM49.8691 13.5625C50.1011 13.5625 50.2967 13.5169 50.4558 13.4258C50.6165 13.3346 50.7375 13.217 50.8187 13.0728C50.9016 12.9286 50.943 12.777 50.943 12.6179V12.081C50.9181 12.1108 50.8635 12.1381 50.7789 12.163C50.6961 12.1862 50.6 12.2069 50.4906 12.2251C50.3829 12.2417 50.2776 12.2566 50.1749 12.2699C50.0738 12.2815 49.9918 12.2914 49.9288 12.2997C49.7763 12.3196 49.6338 12.3519 49.5012 12.3967C49.3703 12.4397 49.2643 12.5052 49.1831 12.593C49.1035 12.6792 49.0637 12.7969 49.0637 12.946C49.0637 13.1499 49.1391 13.304 49.29 13.4084C49.4424 13.5111 49.6355 13.5625 49.8691 13.5625Z" fill="#CDCDCD"/>
<g clip-path="url(#clip0_2_88)">
<path d="M14.6676 11C14.6676 9.71136 15.7123 8.66667 17.0009 8.66667C18.2896 8.66667 19.3343 9.71136 19.3343 11C19.3343 12.2887 18.2896 13.3333 17.0009 13.3333C15.7123 13.3333 14.6676 12.2887 14.6676 11Z" fill="#1ABCFE"/>
<path d="M10.0009 15.6667C10.0009 14.378 11.0456 13.3333 12.3343 13.3333H14.6676V15.6667C14.6676 16.9553 13.6229 18 12.3343 18C11.0456 18 10.0009 16.9553 10.0009 15.6667Z" fill="#0ACF83"/>
<path d="M14.6676 4.00003V8.66666H17.0009C18.2896 8.66666 19.3343 7.62201 19.3343 6.33333C19.3343 5.04466 18.2896 4.00003 17.0009 4.00003H14.6676Z" fill="#FF7262"/>
<path d="M10.0009 6.33333C10.0009 7.62201 11.0456 8.66667 12.3343 8.66667H14.6676V4H12.3343C11.0456 4 10.0009 5.04469 10.0009 6.33333Z" fill="#F24E1E"/>
<path d="M10.0009 11C10.0009 12.2887 11.0456 13.3333 12.3343 13.3333H14.6676V8.66667H12.3343C11.0456 8.66667 10.0009 9.71136 10.0009 11Z" fill="#A259FF"/>
</g>
<defs>
<clipPath id="clip0_2_88">
<rect width="9.3352" height="14" fill="white" transform="translate(10 4)"/>
</clipPath>
</defs>
</svg>
