<svg width="70" height="22" viewBox="0 0 70 22" fill="none" xmlns="http://www.w3.org/2000/svg">
<rect width="70" height="22" rx="11" fill="#232323"/>
<path d="M11.5652 17.8859C12.1634 18.1266 12.8124 18.2695 13.4938 18.2933C14.416 18.3255 15.293 18.1348 16.077 17.7726C15.1369 17.4033 14.2854 16.8631 13.5587 16.1915C13.0877 16.9457 12.391 17.5414 11.5652 17.8859Z" fill="#FF9100"/>
<path d="M13.5586 16.1917C11.8998 14.6575 10.8935 12.437 10.9785 10.0015C10.9813 9.92241 10.9854 9.84337 10.9903 9.76436C10.6932 9.68752 10.3831 9.64063 10.0639 9.62949C9.60702 9.61353 9.16457 9.67019 8.74686 9.78782C8.30405 10.5635 8.03682 11.4535 8.00353 12.4068C7.91762 14.8671 9.40647 17.0168 11.565 17.8861C12.3908 17.5416 13.0875 16.9466 13.5586 16.1917Z" fill="#FFC400"/>
<path d="M13.5587 16.1916C13.9443 15.5744 14.1782 14.8508 14.2054 14.0713C14.277 12.0206 12.8984 10.2565 10.9904 9.76427C10.9855 9.84329 10.9813 9.92233 10.9786 10.0014C10.8935 12.4369 11.8998 14.6574 13.5587 16.1916Z" fill="#FF9100"/>
<path d="M13.992 4C12.9053 4.87057 12.0472 6.01849 11.5281 7.34086C11.2308 8.0983 11.044 8.91191 10.9895 9.76478C12.8975 10.257 14.2761 12.0211 14.2045 14.0718C14.1773 14.8513 13.9428 15.5742 13.5578 16.1921C14.2844 16.8644 15.1359 17.4039 16.0761 17.7733C17.9632 16.901 19.302 15.024 19.3796 12.8038C19.4298 11.3653 18.8771 10.0834 18.0962 9.00122C17.2715 7.85675 13.992 4 13.992 4Z" fill="#DD2C00"/>
<path d="M29.6165 14V8.90909H32.669V9.45597H30.233V11.1761H32.4403V11.723H30.233V14H29.6165ZM33.6453 14V10.1818H34.232V14H33.6453ZM33.9436 9.54545C33.8293 9.54545 33.7307 9.50651 33.6478 9.42862C33.5666 9.35073 33.526 9.2571 33.526 9.14773C33.526 9.03835 33.5666 8.94472 33.6478 8.86683C33.7307 8.78894 33.8293 8.75 33.9436 8.75C34.058 8.75 34.1557 8.78894 34.2369 8.86683C34.3198 8.94472 34.3612 9.03835 34.3612 9.14773C34.3612 9.2571 34.3198 9.35073 34.2369 9.42862C34.1557 9.50651 34.058 9.54545 33.9436 9.54545ZM35.3065 14V10.1818H35.8732V10.7585H35.913C35.9826 10.5696 36.1085 10.4163 36.2908 10.2987C36.4731 10.181 36.6786 10.1222 36.9073 10.1222C36.9504 10.1222 37.0043 10.123 37.0689 10.1246C37.1335 10.1263 37.1824 10.1288 37.2156 10.1321V10.7287C37.1957 10.7237 37.1501 10.7163 37.0788 10.7063C37.0092 10.6947 36.9355 10.6889 36.8576 10.6889C36.672 10.6889 36.5063 10.7279 36.3604 10.8058C36.2163 10.882 36.1019 10.988 36.0174 11.1239C35.9345 11.2582 35.8931 11.4115 35.8931 11.5838V14H35.3065ZM39.3956 14.0795C39.0277 14.0795 38.7103 13.9983 38.4435 13.8359C38.1784 13.6719 37.9737 13.4432 37.8295 13.1499C37.687 12.8549 37.6158 12.5118 37.6158 12.1207C37.6158 11.7296 37.687 11.3849 37.8295 11.0866C37.9737 10.7867 38.1742 10.553 38.4311 10.3857C38.6896 10.2166 38.9912 10.1321 39.3359 10.1321C39.5348 10.1321 39.7312 10.1652 39.9251 10.2315C40.119 10.2978 40.2955 10.4055 40.4545 10.5547C40.6136 10.7022 40.7404 10.8977 40.8349 11.1413C40.9293 11.3849 40.9766 11.6849 40.9766 12.0412V12.2898H38.0334V11.7827H40.38C40.38 11.5672 40.3369 11.375 40.2507 11.206C40.1662 11.0369 40.0452 10.9035 39.8878 10.8058C39.732 10.708 39.5481 10.6591 39.3359 10.6591C39.1023 10.6591 38.9001 10.7171 38.7294 10.8331C38.5604 10.9474 38.4303 11.0966 38.3391 11.2805C38.248 11.4645 38.2024 11.6617 38.2024 11.8722V12.2102C38.2024 12.4986 38.2521 12.743 38.3516 12.9435C38.4527 13.1424 38.5927 13.294 38.7717 13.3984C38.9506 13.5012 39.1586 13.5526 39.3956 13.5526C39.5497 13.5526 39.6889 13.531 39.8132 13.4879C39.9392 13.4432 40.0477 13.3769 40.1388 13.2891C40.23 13.1996 40.3004 13.0885 40.3501 12.956L40.9169 13.1151C40.8572 13.3073 40.757 13.4763 40.6161 13.6222C40.4753 13.7663 40.3013 13.879 40.0941 13.9602C39.887 14.0398 39.6541 14.0795 39.3956 14.0795ZM41.9485 14V8.90909H42.5352V10.7884H42.5849C42.628 10.7221 42.6876 10.6375 42.7638 10.5348C42.8417 10.4304 42.9528 10.3376 43.0969 10.2564C43.2428 10.1735 43.44 10.1321 43.6886 10.1321C44.0101 10.1321 44.2934 10.2125 44.5387 10.3732C44.784 10.534 44.9754 10.7618 45.1129 11.0568C45.2505 11.3518 45.3192 11.6998 45.3192 12.1009C45.3192 12.5052 45.2505 12.8557 45.1129 13.1523C44.9754 13.4473 44.7848 13.676 44.5412 13.8384C44.2976 13.9992 44.0167 14.0795 43.6985 14.0795C43.4532 14.0795 43.2569 14.0389 43.1094 13.9577C42.9619 13.8749 42.8484 13.7812 42.7688 13.6768C42.6893 13.5708 42.628 13.483 42.5849 13.4134H42.5153V14H41.9485ZM42.5252 12.0909C42.5252 12.3793 42.5675 12.6336 42.652 12.854C42.7365 13.0728 42.86 13.2443 43.0224 13.3686C43.1848 13.4912 43.3836 13.5526 43.619 13.5526C43.8642 13.5526 44.0689 13.4879 44.233 13.3587C44.3987 13.2277 44.523 13.0521 44.6058 12.8317C44.6903 12.6096 44.7326 12.3627 44.7326 12.0909C44.7326 11.8224 44.6912 11.5805 44.6083 11.3651C44.5271 11.148 44.4036 10.9764 44.2379 10.8505C44.0739 10.7229 43.8675 10.6591 43.619 10.6591C43.3803 10.6591 43.1798 10.7196 43.0174 10.8406C42.855 10.9599 42.7324 11.1272 42.6495 11.3427C42.5666 11.5565 42.5252 11.8059 42.5252 12.0909ZM47.3402 14.0895C47.0982 14.0895 46.8787 14.0439 46.6815 13.9528C46.4843 13.86 46.3277 13.7266 46.2116 13.5526C46.0956 13.3769 46.0376 13.1648 46.0376 12.9162C46.0376 12.6974 46.0807 12.5201 46.1669 12.3842C46.2531 12.2467 46.3683 12.139 46.5124 12.0611C46.6566 11.9832 46.8157 11.9252 46.9897 11.8871C47.1654 11.8473 47.3419 11.8158 47.5192 11.7926C47.7512 11.7628 47.9393 11.7404 48.0835 11.7255C48.2293 11.7089 48.3353 11.6816 48.4016 11.6435C48.4696 11.6054 48.5036 11.5391 48.5036 11.4446V11.4247C48.5036 11.1795 48.4364 10.9889 48.3022 10.853C48.1696 10.7171 47.9683 10.6491 47.6982 10.6491C47.4181 10.6491 47.1985 10.7105 47.0394 10.8331C46.8803 10.9557 46.7685 11.0866 46.7038 11.2259L46.147 11.027C46.2464 10.795 46.379 10.6143 46.5447 10.4851C46.7121 10.3542 46.8944 10.263 47.0916 10.2116C47.2905 10.1586 47.486 10.1321 47.6783 10.1321C47.8009 10.1321 47.9418 10.147 48.1009 10.1768C48.2616 10.205 48.4165 10.2638 48.5657 10.3533C48.7165 10.4428 48.8416 10.5779 48.9411 10.7585C49.0405 10.9392 49.0902 11.1811 49.0902 11.4844V14H48.5036V13.483H48.4737C48.4339 13.5658 48.3677 13.6545 48.2749 13.7489C48.1821 13.8434 48.0586 13.9238 47.9045 13.9901C47.7504 14.0563 47.5623 14.0895 47.3402 14.0895ZM47.4297 13.5625C47.6617 13.5625 47.8572 13.5169 48.0163 13.4258C48.1771 13.3346 48.2981 13.217 48.3793 13.0728C48.4621 12.9286 48.5036 12.777 48.5036 12.6179V12.081C48.4787 12.1108 48.424 12.1381 48.3395 12.163C48.2566 12.1862 48.1605 12.2069 48.0511 12.2251C47.9434 12.2417 47.8382 12.2566 47.7354 12.2699C47.6344 12.2815 47.5523 12.2914 47.4893 12.2997C47.3369 12.3196 47.1944 12.3519 47.0618 12.3967C46.9309 12.4397 46.8248 12.5052 46.7436 12.593C46.6641 12.6792 46.6243 12.7969 46.6243 12.946C46.6243 13.1499 46.6997 13.304 46.8505 13.4084C47.003 13.5111 47.196 13.5625 47.4297 13.5625ZM52.8655 11.0369L52.3385 11.1861C52.3054 11.0982 52.2565 11.0129 52.1919 10.93C52.1289 10.8455 52.0427 10.7759 51.9333 10.7212C51.824 10.6665 51.6839 10.6392 51.5132 10.6392C51.2796 10.6392 51.0848 10.6931 50.9291 10.8008C50.7749 10.9068 50.6979 11.0419 50.6979 11.206C50.6979 11.3518 50.7509 11.467 50.857 11.5515C50.963 11.636 51.1288 11.7064 51.3541 11.7628L51.9209 11.902C52.2623 11.9848 52.5167 12.1116 52.684 12.2823C52.8514 12.4513 52.9351 12.6693 52.9351 12.9361C52.9351 13.1548 52.8721 13.3504 52.7462 13.5227C52.6219 13.6951 52.4479 13.831 52.2242 13.9304C52.0004 14.0298 51.7403 14.0795 51.4436 14.0795C51.0542 14.0795 50.7319 13.995 50.4767 13.826C50.2214 13.657 50.0599 13.41 49.9919 13.0852L50.5487 12.946C50.6018 13.1515 50.702 13.3056 50.8495 13.4084C50.9987 13.5111 51.1934 13.5625 51.4337 13.5625C51.7071 13.5625 51.9242 13.5045 52.085 13.3885C52.2474 13.2708 52.3286 13.13 52.3286 12.9659C52.3286 12.8333 52.2822 12.7223 52.1894 12.6328C52.0966 12.5417 51.954 12.4737 51.7618 12.429L51.1254 12.2798C50.7758 12.197 50.5189 12.0685 50.3548 11.8945C50.1924 11.7189 50.1112 11.4993 50.1112 11.2358C50.1112 11.0204 50.1717 10.8298 50.2927 10.6641C50.4153 10.4983 50.5819 10.3683 50.7923 10.2738C51.0045 10.1793 51.2448 10.1321 51.5132 10.1321C51.8911 10.1321 52.1877 10.215 52.4031 10.3807C52.6202 10.5464 52.7744 10.7652 52.8655 11.0369ZM55.419 14.0795C55.0511 14.0795 54.7338 13.9983 54.467 13.8359C54.2018 13.6719 53.9972 13.4432 53.853 13.1499C53.7105 12.8549 53.6392 12.5118 53.6392 12.1207C53.6392 11.7296 53.7105 11.3849 53.853 11.0866C53.9972 10.7867 54.1977 10.553 54.4545 10.3857C54.7131 10.2166 55.0147 10.1321 55.3594 10.1321C55.5582 10.1321 55.7546 10.1652 55.9485 10.2315C56.1424 10.2978 56.3189 10.4055 56.478 10.5547C56.6371 10.7022 56.7638 10.8977 56.8583 11.1413C56.9528 11.3849 57 11.6849 57 12.0412V12.2898H54.0568V11.7827H56.4034C56.4034 11.5672 56.3603 11.375 56.2741 11.206C56.1896 11.0369 56.0687 10.9035 55.9112 10.8058C55.7554 10.708 55.5715 10.6591 55.3594 10.6591C55.1257 10.6591 54.9235 10.7171 54.7528 10.8331C54.5838 10.9474 54.4537 11.0966 54.3626 11.2805C54.2714 11.4645 54.2259 11.6617 54.2259 11.8722V12.2102C54.2259 12.4986 54.2756 12.743 54.375 12.9435C54.4761 13.1424 54.6161 13.294 54.7951 13.3984C54.9741 13.5012 55.1821 13.5526 55.419 13.5526C55.5732 13.5526 55.7124 13.531 55.8366 13.4879C55.9626 13.4432 56.0711 13.3769 56.1623 13.2891C56.2534 13.1996 56.3239 13.0885 56.3736 12.956L56.9403 13.1151C56.8807 13.3073 56.7804 13.4763 56.6396 13.6222C56.4987 13.7663 56.3247 13.879 56.1175 13.9602C55.9104 14.0398 55.6776 14.0795 55.419 14.0795Z" fill="#CDCDCD"/>
</svg>
