<svg width="70" height="22" viewBox="0 0 70 22" fill="none" xmlns="http://www.w3.org/2000/svg">
<rect width="70" height="22" rx="11" fill="#232323"/>
<path d="M29.6165 14V8.90909H31.3366C31.7344 8.90909 32.0608 8.97704 32.3161 9.11293C32.5713 9.24716 32.7602 9.43194 32.8828 9.66726C33.0054 9.90258 33.0668 10.1702 33.0668 10.4702C33.0668 10.7701 33.0054 11.0361 32.8828 11.2681C32.7602 11.5001 32.5721 11.6824 32.3185 11.815C32.065 11.9459 31.741 12.0114 31.3466 12.0114H29.9545V11.4545H31.3267C31.5985 11.4545 31.8172 11.4148 31.983 11.3352C32.1503 11.2557 32.2713 11.143 32.3459 10.9972C32.4221 10.8497 32.4602 10.674 32.4602 10.4702C32.4602 10.2663 32.4221 10.0882 32.3459 9.93572C32.2696 9.78326 32.1478 9.6656 31.9805 9.58274C31.8131 9.49822 31.5919 9.45597 31.3168 9.45597H30.233V14H29.6165ZM32.0128 11.7131L33.2656 14H32.5497L31.3168 11.7131H32.0128ZM35.5743 14.0795C35.2064 14.0795 34.8891 13.9983 34.6222 13.8359C34.3571 13.6719 34.1524 13.4432 34.0083 13.1499C33.8657 12.8549 33.7945 12.5118 33.7945 12.1207C33.7945 11.7296 33.8657 11.3849 34.0083 11.0866C34.1524 10.7867 34.353 10.553 34.6098 10.3857C34.8683 10.2166 35.17 10.1321 35.5146 10.1321C35.7135 10.1321 35.9099 10.1652 36.1038 10.2315C36.2977 10.2978 36.4742 10.4055 36.6333 10.5547C36.7923 10.7022 36.9191 10.8977 37.0136 11.1413C37.108 11.3849 37.1553 11.6849 37.1553 12.0412V12.2898H34.2121V11.7827H36.5587C36.5587 11.5672 36.5156 11.375 36.4294 11.206C36.3449 11.0369 36.2239 10.9035 36.0665 10.8058C35.9107 10.708 35.7268 10.6591 35.5146 10.6591C35.281 10.6591 35.0788 10.7171 34.9081 10.8331C34.7391 10.9474 34.609 11.0966 34.5178 11.2805C34.4267 11.4645 34.3811 11.6617 34.3811 11.8722V12.2102C34.3811 12.4986 34.4308 12.743 34.5303 12.9435C34.6314 13.1424 34.7714 13.294 34.9504 13.3984C35.1294 13.5012 35.3373 13.5526 35.5743 13.5526C35.7284 13.5526 35.8676 13.531 35.9919 13.4879C36.1179 13.4432 36.2264 13.3769 36.3176 13.2891C36.4087 13.1996 36.4791 13.0885 36.5289 12.956L37.0956 13.1151C37.036 13.3073 36.9357 13.4763 36.7948 13.6222C36.654 13.7663 36.48 13.879 36.2728 13.9602C36.0657 14.0398 35.8328 14.0795 35.5743 14.0795ZM39.1713 14.0895C38.9293 14.0895 38.7097 14.0439 38.5125 13.9528C38.3153 13.86 38.1587 13.7266 38.0427 13.5526C37.9267 13.3769 37.8687 13.1648 37.8687 12.9162C37.8687 12.6974 37.9118 12.5201 37.998 12.3842C38.0841 12.2467 38.1993 12.139 38.3435 12.0611C38.4877 11.9832 38.6468 11.9252 38.8208 11.8871C38.9964 11.8473 39.1729 11.8158 39.3502 11.7926C39.5822 11.7628 39.7703 11.7404 39.9145 11.7255C40.0603 11.7089 40.1664 11.6816 40.2327 11.6435C40.3006 11.6054 40.3346 11.5391 40.3346 11.4446V11.4247C40.3346 11.1795 40.2675 10.9889 40.1333 10.853C40.0007 10.7171 39.7993 10.6491 39.5292 10.6491C39.2491 10.6491 39.0296 10.7105 38.8705 10.8331C38.7114 10.9557 38.5995 11.0866 38.5349 11.2259L37.9781 11.027C38.0775 10.795 38.2101 10.6143 38.3758 10.4851C38.5432 10.3542 38.7255 10.263 38.9227 10.2116C39.1215 10.1586 39.3171 10.1321 39.5093 10.1321C39.632 10.1321 39.7728 10.147 39.9319 10.1768C40.0927 10.205 40.2476 10.2638 40.3968 10.3533C40.5476 10.4428 40.6727 10.5779 40.7721 10.7585C40.8715 10.9392 40.9213 11.1811 40.9213 11.4844V14H40.3346V13.483H40.3048C40.265 13.5658 40.1987 13.6545 40.1059 13.7489C40.0131 13.8434 39.8896 13.9238 39.7355 13.9901C39.5814 14.0563 39.3933 14.0895 39.1713 14.0895ZM39.2607 13.5625C39.4927 13.5625 39.6883 13.5169 39.8474 13.4258C40.0081 13.3346 40.1291 13.217 40.2103 13.0728C40.2932 12.9286 40.3346 12.777 40.3346 12.6179V12.081C40.3097 12.1108 40.2551 12.1381 40.1705 12.163C40.0877 12.1862 39.9916 12.2069 39.8822 12.2251C39.7745 12.2417 39.6692 12.2566 39.5665 12.2699C39.4654 12.2815 39.3834 12.2914 39.3204 12.2997C39.1679 12.3196 39.0254 12.3519 38.8928 12.3967C38.7619 12.4397 38.6559 12.5052 38.5747 12.593C38.4951 12.6792 38.4553 12.7969 38.4553 12.946C38.4553 13.1499 38.5307 13.304 38.6816 13.4084C38.834 13.5111 39.0271 13.5625 39.2607 13.5625ZM43.5431 14.0795C43.1852 14.0795 42.877 13.995 42.6184 13.826C42.3599 13.657 42.161 13.4241 42.0218 13.1275C41.8826 12.8308 41.813 12.492 41.813 12.1108C41.813 11.723 41.8843 11.3808 42.0268 11.0842C42.171 10.7859 42.3715 10.553 42.6284 10.3857C42.8869 10.2166 43.1885 10.1321 43.5332 10.1321C43.8017 10.1321 44.0436 10.1818 44.2591 10.2812C44.4745 10.3807 44.651 10.5199 44.7885 10.6989C44.9261 10.8778 45.0114 11.0866 45.0446 11.3253H44.4579C44.4132 11.1513 44.3137 10.9972 44.1596 10.8629C44.0072 10.727 43.8017 10.6591 43.5431 10.6591C43.3145 10.6591 43.1139 10.7187 42.9416 10.8381C42.7709 10.9557 42.6375 11.1223 42.5414 11.3377C42.4469 11.5515 42.3997 11.8026 42.3997 12.0909C42.3997 12.3859 42.4461 12.6428 42.5389 12.8615C42.6333 13.0803 42.7659 13.2501 42.9366 13.3711C43.109 13.4921 43.3111 13.5526 43.5431 13.5526C43.6956 13.5526 43.834 13.526 43.9583 13.473C44.0826 13.42 44.1878 13.3438 44.274 13.2443C44.3601 13.1449 44.4215 13.0256 44.4579 12.8864H45.0446C45.0114 13.1117 44.9294 13.3147 44.7985 13.4954C44.6692 13.6744 44.4977 13.8169 44.2839 13.9229C44.0718 14.0273 43.8249 14.0795 43.5431 14.0795ZM47.5627 10.1818V10.679H45.584V10.1818H47.5627ZM46.1607 9.26705H46.7473V12.9062C46.7473 13.072 46.7714 13.1963 46.8194 13.2791C46.8691 13.3603 46.9321 13.415 47.0083 13.4432C47.0862 13.4697 47.1683 13.483 47.2544 13.483C47.3191 13.483 47.3721 13.4796 47.4135 13.473C47.455 13.4647 47.4881 13.4581 47.513 13.4531L47.6323 13.9801C47.5925 13.995 47.537 14.0099 47.4657 14.0249C47.3945 14.0414 47.3042 14.0497 47.1948 14.0497C47.0291 14.0497 46.8667 14.0141 46.7076 13.9428C46.5501 13.8716 46.4192 13.763 46.3148 13.6172C46.2121 13.4714 46.1607 13.2874 46.1607 13.0653V9.26705ZM48.8727 14.0398C48.7501 14.0398 48.6448 13.9959 48.557 13.908C48.4692 13.8202 48.4252 13.715 48.4252 13.5923C48.4252 13.4697 48.4692 13.3645 48.557 13.2766C48.6448 13.1888 48.7501 13.1449 48.8727 13.1449C48.9953 13.1449 49.1006 13.1888 49.1884 13.2766C49.2762 13.3645 49.3201 13.4697 49.3201 13.5923C49.3201 13.6735 49.2994 13.7481 49.258 13.8161C49.2182 13.884 49.1644 13.9387 49.0964 13.9801C49.0301 14.0199 48.9556 14.0398 48.8727 14.0398ZM50.3729 10.1818H50.9595V14.2784C50.9595 14.5137 50.9189 14.7176 50.8377 14.8899C50.7582 15.0623 50.6372 15.1957 50.4748 15.2901C50.314 15.3846 50.111 15.4318 49.8658 15.4318C49.8459 15.4318 49.826 15.4318 49.8061 15.4318C49.7862 15.4318 49.7663 15.4318 49.7464 15.4318V14.8849C49.7663 14.8849 49.7846 14.8849 49.8011 14.8849C49.8177 14.8849 49.8359 14.8849 49.8558 14.8849C50.0348 14.8849 50.1657 14.8319 50.2486 14.7259C50.3314 14.6214 50.3729 14.4723 50.3729 14.2784V10.1818ZM50.6612 9.54545C50.5469 9.54545 50.4483 9.50651 50.3654 9.42862C50.2842 9.35073 50.2436 9.2571 50.2436 9.14773C50.2436 9.03835 50.2842 8.94472 50.3654 8.86683C50.4483 8.78894 50.5469 8.75 50.6612 8.75C50.7756 8.75 50.8733 8.78894 50.9545 8.86683C51.0374 8.94472 51.0788 9.03835 51.0788 9.14773C51.0788 9.2571 51.0374 9.35073 50.9545 9.42862C50.8733 9.50651 50.7756 9.54545 50.6612 9.54545ZM54.7385 11.0369L54.2116 11.1861C54.1784 11.0982 54.1295 11.0129 54.0649 10.93C54.0019 10.8455 53.9157 10.7759 53.8064 10.7212C53.697 10.6665 53.557 10.6392 53.3863 10.6392C53.1526 10.6392 52.9579 10.6931 52.8021 10.8008C52.648 10.9068 52.5709 11.0419 52.5709 11.206C52.5709 11.3518 52.624 11.467 52.73 11.5515C52.8361 11.636 53.0018 11.7064 53.2272 11.7628L53.7939 11.902C54.1353 11.9848 54.3897 12.1116 54.5571 12.2823C54.7245 12.4513 54.8081 12.6693 54.8081 12.9361C54.8081 13.1548 54.7452 13.3504 54.6192 13.5227C54.4949 13.6951 54.3209 13.831 54.0972 13.9304C53.8735 14.0298 53.6133 14.0795 53.3167 14.0795C52.9272 14.0795 52.6049 13.995 52.3497 13.826C52.0945 13.657 51.9329 13.41 51.865 13.0852L52.4218 12.946C52.4748 13.1515 52.5751 13.3056 52.7226 13.4084C52.8717 13.5111 53.0664 13.5625 53.3067 13.5625C53.5802 13.5625 53.7973 13.5045 53.958 13.3885C54.1204 13.2708 54.2016 13.13 54.2016 12.9659C54.2016 12.8333 54.1552 12.7223 54.0624 12.6328C53.9696 12.5417 53.8271 12.4737 53.6349 12.429L52.9985 12.2798C52.6488 12.197 52.392 12.0685 52.2279 11.8945C52.0655 11.7189 51.9843 11.4993 51.9843 11.2358C51.9843 11.0204 52.0448 10.8298 52.1657 10.6641C52.2884 10.4983 52.4549 10.3683 52.6654 10.2738C52.8775 10.1793 53.1178 10.1321 53.3863 10.1321C53.7641 10.1321 54.0608 10.215 54.2762 10.3807C54.4933 10.5464 54.6474 10.7652 54.7385 11.0369Z" fill="#CDCDCD"/>
<g clip-path="url(#clip0_2_84)">
<path d="M20.2864 11.0013C20.2864 10.1873 19.2671 9.41599 17.7044 8.93766C18.065 7.34488 17.9048 6.07768 17.1985 5.67197C17.0357 5.5768 16.8454 5.53172 16.6375 5.53172V6.0902C16.7527 6.0902 16.8454 6.11274 16.923 6.15531C17.2636 6.35065 17.4114 7.09445 17.2962 8.05111C17.2686 8.28652 17.2236 8.53446 17.1685 8.7874C16.6776 8.66719 16.1417 8.57452 15.5782 8.51442C15.2401 8.05111 14.8895 7.63038 14.5364 7.26224C15.3528 6.50342 16.1191 6.08769 16.64 6.08769V5.52922C15.9513 5.52922 15.0498 6.02008 14.1382 6.87156C13.2266 6.02508 12.325 5.53924 11.6363 5.53924V6.09771C12.1547 6.09771 12.9236 6.51093 13.74 7.26474C13.3894 7.63288 13.0388 8.05111 12.7057 8.51442C12.1397 8.57452 11.6038 8.66719 11.1129 8.7899C11.0553 8.53946 11.0127 8.29654 10.9827 8.06363C10.865 7.10697 11.0102 6.36317 11.3483 6.16533C11.4235 6.12025 11.5211 6.10022 11.6363 6.10022V5.54174C11.426 5.54174 11.2356 5.58682 11.0703 5.68199C10.3666 6.08769 10.2088 7.3524 10.572 8.94016C9.01427 9.421 8 10.1898 8 11.0013C8 11.8152 9.01928 12.5865 10.582 13.0648C10.2214 14.6576 10.3816 15.9248 11.0879 16.3305C11.2507 16.4257 11.441 16.4708 11.6514 16.4708C12.3401 16.4708 13.2416 15.9799 14.1532 15.1284C15.0648 15.9749 15.9664 16.4608 16.6551 16.4608C16.8654 16.4608 17.0558 16.4157 17.2211 16.3205C17.9248 15.9148 18.0826 14.6501 17.7194 13.0623C19.2721 12.584 20.2864 11.8127 20.2864 11.0013ZM17.0257 9.33084C16.9331 9.6539 16.8179 9.98698 16.6876 10.3201C16.585 10.1197 16.4773 9.91937 16.3596 9.71902C16.2444 9.51867 16.1216 9.32333 15.9989 9.133C16.3546 9.18559 16.6976 9.2507 17.0257 9.33084ZM15.8787 11.998C15.6834 12.3361 15.483 12.6566 15.2752 12.9547C14.902 12.9872 14.5239 13.0047 14.1432 13.0047C13.765 13.0047 13.3869 12.9872 13.0162 12.9572C12.8084 12.6591 12.6055 12.3411 12.4102 12.0055C12.2199 11.6774 12.047 11.3443 11.8893 11.0088C12.0445 10.6732 12.2199 10.3376 12.4077 10.0095C12.603 9.67144 12.8034 9.35088 13.0112 9.05286C13.3844 9.0203 13.7625 9.00277 14.1432 9.00277C14.5214 9.00277 14.8995 9.0203 15.2702 9.05035C15.478 9.34837 15.6809 9.66643 15.8762 10.002C16.0666 10.3301 16.2394 10.6632 16.3971 10.9987C16.2394 11.3343 16.0665 11.6699 15.8787 11.998ZM16.6876 11.6724C16.8229 12.008 16.9381 12.3436 17.0332 12.6692C16.7052 12.7493 16.3596 12.8169 16.0014 12.8695C16.1242 12.6767 16.2469 12.4788 16.3621 12.276C16.4773 12.0756 16.585 11.8728 16.6876 11.6724ZM14.1482 14.3446C13.9153 14.1042 13.6824 13.8362 13.452 13.5432C13.6774 13.5532 13.9078 13.5607 14.1407 13.5607C14.3761 13.5607 14.609 13.5557 14.8369 13.5432C14.6115 13.8362 14.3786 14.1042 14.1482 14.3446ZM12.285 12.8695C11.9293 12.8169 11.5862 12.7518 11.2582 12.6717C11.3508 12.3486 11.466 12.0155 11.5963 11.6824C11.6989 11.8828 11.8066 12.0831 11.9243 12.2835C12.042 12.4838 12.1622 12.6792 12.285 12.8695ZM14.1357 7.65793C14.3686 7.89835 14.6015 8.16631 14.8319 8.45932C14.6065 8.44931 14.3761 8.44179 14.1432 8.44179C13.9078 8.44179 13.6749 8.4468 13.447 8.45932C13.6724 8.16631 13.9053 7.89835 14.1357 7.65793ZM12.2825 9.133C12.1597 9.32583 12.037 9.52368 11.9218 9.72653C11.8066 9.92688 11.6989 10.1272 11.5963 10.3276C11.461 9.99199 11.3458 9.65641 11.2507 9.33084C11.5787 9.25321 11.9243 9.18559 12.2825 9.133ZM10.016 12.2685C9.12947 11.8903 8.55597 11.3944 8.55597 11.0013C8.55597 10.6081 9.12947 10.1097 10.016 9.73404C10.2314 9.64138 10.4668 9.55874 10.7097 9.4811C10.8525 9.97196 11.0403 10.4828 11.2732 11.0063C11.0428 11.5272 10.8575 12.0356 10.7172 12.5239C10.4693 12.4463 10.2339 12.3611 10.016 12.2685ZM11.3634 15.8472C11.0228 15.6519 10.875 14.9081 10.9902 13.9514C11.0178 13.716 11.0628 13.468 11.1179 13.2151C11.6088 13.3353 12.1447 13.428 12.7082 13.4881C13.0463 13.9514 13.3969 14.3721 13.75 14.7403C12.9336 15.4991 12.1673 15.9148 11.6464 15.9148C11.5337 15.9123 11.4385 15.8898 11.3634 15.8472ZM17.3037 13.9389C17.4214 14.8955 17.2762 15.6393 16.9381 15.8372C16.8629 15.8823 16.7653 15.9023 16.6501 15.9023C16.1317 15.9023 15.3628 15.4891 14.5464 14.7353C14.897 14.3671 15.2476 13.9489 15.5807 13.4856C16.1467 13.4255 16.6826 13.3328 17.1735 13.2101C17.2311 13.463 17.2762 13.706 17.3037 13.9389ZM18.2679 12.2685C18.0525 12.3611 17.8171 12.4438 17.5742 12.5214C17.4314 12.0305 17.2436 11.5197 17.0107 10.9962C17.2411 10.4753 17.4264 9.96695 17.5667 9.4786C17.8146 9.55623 18.05 9.64138 18.2704 9.73404C19.1569 10.1122 19.7304 10.6081 19.7304 11.0013C19.7279 11.3944 19.1544 11.8928 18.2679 12.2685Z" fill="#61DAFB"/>
<path d="M14.1407 12.1457C14.7728 12.1457 15.2852 11.6333 15.2852 11.0013C15.2852 10.3692 14.7728 9.85676 14.1407 9.85676C13.5086 9.85676 12.9962 10.3692 12.9962 11.0013C12.9962 11.6333 13.5086 12.1457 14.1407 12.1457Z" fill="#61DAFB"/>
</g>
<defs>
<clipPath id="clip0_2_84">
<rect width="12.2864" height="14" fill="white" transform="translate(8 4)"/>
</clipPath>
</defs>
</svg>
