<svg width="70" height="22" viewBox="0 0 70 22" fill="none" xmlns="http://www.w3.org/2000/svg">
<rect width="70" height="22" rx="11" fill="#2b2e35"/>
<path d="M37.0881 14.0795C36.7301 14.0795 36.4219 13.995 36.1634 13.826C35.9048 13.657 35.706 13.4241 35.5668 13.1275C35.4276 12.8308 35.358 12.492 35.358 12.1108C35.358 11.723 35.4292 11.3808 35.5717 11.0842C35.7159 10.7859 35.9164 10.553 36.1733 10.3857C36.4318 10.2166 36.7334 10.1321 37.0781 10.1321C37.3466 10.1321 37.5885 10.1818 37.804 10.2812C38.0194 10.3807 38.1959 10.5199 38.3335 10.6989C38.471 10.8778 38.5563 11.0866 38.5895 11.3253H38.0028C37.9581 11.1513 37.8587 10.9972 37.7045 10.8629C37.5521 10.727 37.3466 10.6591 37.0881 10.6591C36.8594 10.6591 36.6589 10.7187 36.4865 10.8381C36.3158 10.9557 36.1824 11.1223 36.0863 11.3377C35.9918 11.5515 35.9446 11.8026 35.9446 12.0909C35.9446 12.3859 35.991 12.6428 36.0838 12.8615C36.1783 13.0803 36.3108 13.2501 36.4815 13.3711C36.6539 13.4921 36.8561 13.5526 37.0881 13.5526C37.2405 13.5526 37.3789 13.526 37.5032 13.473C37.6275 13.42 37.7327 13.3438 37.8189 13.2443C37.9051 13.1449 37.9664 13.0256 38.0028 12.8864H38.5895C38.5563 13.1117 38.4743 13.3147 38.3434 13.4954C38.2141 13.6744 38.0426 13.8169 37.8288 13.9229C37.6167 14.0273 37.3698 14.0795 37.0881 14.0795ZM42.1516 11.0369L41.6246 11.1861C41.5915 11.0982 41.5426 11.0129 41.478 10.93C41.415 10.8455 41.3288 10.7759 41.2195 10.7212C41.1101 10.6665 40.9701 10.6392 40.7994 10.6392C40.5657 10.6392 40.371 10.6931 40.2152 10.8008C40.0611 10.9068 39.984 11.0419 39.984 11.206C39.984 11.3518 40.0371 11.467 40.1431 11.5515C40.2492 11.636 40.4149 11.7064 40.6403 11.7628L41.207 11.902C41.5484 11.9848 41.8028 12.1116 41.9702 12.2823C42.1375 12.4513 42.2212 12.6693 42.2212 12.9361C42.2212 13.1548 42.1583 13.3504 42.0323 13.5227C41.908 13.6951 41.734 13.831 41.5103 13.9304C41.2866 14.0298 41.0264 14.0795 40.7298 14.0795C40.3403 14.0795 40.018 13.995 39.7628 13.826C39.5076 13.657 39.346 13.41 39.2781 13.0852L39.8349 12.946C39.8879 13.1515 39.9882 13.3056 40.1357 13.4084C40.2848 13.5111 40.4795 13.5625 40.7198 13.5625C40.9933 13.5625 41.2103 13.5045 41.3711 13.3885C41.5335 13.2708 41.6147 13.13 41.6147 12.9659C41.6147 12.8333 41.5683 12.7223 41.4755 12.6328C41.3827 12.5417 41.2402 12.4737 41.0479 12.429L40.4116 12.2798C40.0619 12.197 39.805 12.0685 39.641 11.8945C39.4786 11.7189 39.3974 11.4993 39.3974 11.2358C39.3974 11.0204 39.4579 10.8298 39.5788 10.6641C39.7015 10.4983 39.868 10.3683 40.0785 10.2738C40.2906 10.1793 40.5309 10.1321 40.7994 10.1321C41.1772 10.1321 41.4738 10.215 41.6893 10.3807C41.9064 10.5464 42.0605 10.7652 42.1516 11.0369ZM45.8089 11.0369L45.2819 11.1861C45.2487 11.0982 45.1998 11.0129 45.1352 10.93C45.0722 10.8455 44.9861 10.7759 44.8767 10.7212C44.7673 10.6665 44.6273 10.6392 44.4566 10.6392C44.2229 10.6392 44.0282 10.6931 43.8724 10.8008C43.7183 10.9068 43.6412 11.0419 43.6412 11.206C43.6412 11.3518 43.6943 11.467 43.8003 11.5515C43.9064 11.636 44.0721 11.7064 44.2975 11.7628L44.8643 11.902C45.2056 11.9848 45.46 12.1116 45.6274 12.2823C45.7948 12.4513 45.8785 12.6693 45.8785 12.9361C45.8785 13.1548 45.8155 13.3504 45.6895 13.5227C45.5653 13.6951 45.3912 13.831 45.1675 13.9304C44.9438 14.0298 44.6836 14.0795 44.387 14.0795C43.9975 14.0795 43.6752 13.995 43.42 13.826C43.1648 13.657 43.0032 13.41 42.9353 13.0852L43.4921 12.946C43.5451 13.1515 43.6454 13.3056 43.7929 13.4084C43.942 13.5111 44.1367 13.5625 44.377 13.5625C44.6505 13.5625 44.8676 13.5045 45.0283 13.3885C45.1907 13.2708 45.2719 13.13 45.2719 12.9659C45.2719 12.8333 45.2255 12.7223 45.1327 12.6328C45.0399 12.5417 44.8974 12.4737 44.7052 12.429L44.0688 12.2798C43.7191 12.197 43.4623 12.0685 43.2982 11.8945C43.1358 11.7189 43.0546 11.4993 43.0546 11.2358C43.0546 11.0204 43.1151 10.8298 43.2361 10.6641C43.3587 10.4983 43.5252 10.3683 43.7357 10.2738C43.9478 10.1793 44.1881 10.1321 44.4566 10.1321C44.8344 10.1321 45.1311 10.215 45.3465 10.3807C45.5636 10.5464 45.7177 10.7652 45.8089 11.0369Z" fill="#CDCDCD"/>
<g clip-path="url(#clip0_1_82)">
<path d="M9.02363 16.5334L8 4.02348L20.2248 4.04862L19.1424 16.5334L14.1585 17.9765L9.02363 16.5334Z" fill="#1B73BA"/>
<path d="M14.1585 16.7683V5.21491L19.1928 5.23167L18.2951 15.5685L14.1585 16.7683Z" fill="#1C88C7"/>
<path d="M17.9426 6.69164H10.1983L10.4081 8.2018H14.083L10.4668 9.75406L10.6765 11.2139H16.0045L15.8115 13.2527L14.0075 13.6052L12.3715 13.1857L12.2456 12.0278H10.7437L10.945 14.4359L14.1669 15.3336L17.2547 14.352L17.649 9.64492H14.385L17.9425 8.16828L17.9426 6.69164Z" fill="white"/>
</g>
<defs>
<clipPath id="clip0_1_82">
<rect width="12.2248" height="14" fill="white" transform="translate(8 4)"/>
</clipPath>
</defs>
</svg>
