<svg width="70" height="22" viewBox="0 0 70 22" fill="none" xmlns="http://www.w3.org/2000/svg">
<rect width="70" height="22" rx="11" fill="#2b2e35"/>
<path d="M36.1236 11.7031V14H35.5369V8.90909H36.1236V10.7784H36.1733C36.2628 10.5812 36.397 10.4246 36.576 10.3086C36.7566 10.1909 36.9969 10.1321 37.2969 10.1321C37.5571 10.1321 37.7849 10.1843 37.9805 10.2887C38.176 10.3915 38.3277 10.5497 38.4354 10.7635C38.5447 10.9756 38.5994 11.2457 38.5994 11.5739V14H38.0128V11.6136C38.0128 11.3104 37.9341 11.0759 37.7766 10.9102C37.6209 10.7428 37.4046 10.6591 37.1278 10.6591C36.9356 10.6591 36.7633 10.6997 36.6108 10.7809C36.46 10.8621 36.3407 10.9806 36.2528 11.1364C36.1667 11.2921 36.1236 11.4811 36.1236 11.7031ZM41.3332 10.1818V10.679H39.3545V10.1818H41.3332ZM39.9312 9.26705H40.5178V12.9062C40.5178 13.072 40.5419 13.1963 40.5899 13.2791C40.6396 13.3603 40.7026 13.415 40.7789 13.4432C40.8567 13.4697 40.9388 13.483 41.0249 13.483C41.0896 13.483 41.1426 13.4796 41.184 13.473C41.2255 13.4647 41.2586 13.4581 41.2835 13.4531L41.4028 13.9801C41.363 13.995 41.3075 14.0099 41.2362 14.0249C41.165 14.0414 41.0747 14.0497 40.9653 14.0497C40.7996 14.0497 40.6372 14.0141 40.4781 13.9428C40.3206 13.8716 40.1897 13.763 40.0853 13.6172C39.9826 13.4714 39.9312 13.2874 39.9312 13.0653V9.26705ZM42.2156 14V10.1818H42.7824V10.7784H42.8321C42.9117 10.5746 43.0401 10.4163 43.2174 10.3036C43.3947 10.1893 43.6077 10.1321 43.8563 10.1321C44.1082 10.1321 44.3178 10.1893 44.4852 10.3036C44.6542 10.4163 44.786 10.5746 44.8804 10.7784H44.9202C45.018 10.5812 45.1646 10.4246 45.3602 10.3086C45.5557 10.1909 45.7902 10.1321 46.0637 10.1321C46.405 10.1321 46.6843 10.239 46.9014 10.4528C47.1185 10.6649 47.227 10.9955 47.227 11.4446V14H46.6404V11.4446C46.6404 11.1629 46.5633 10.9615 46.4092 10.8406C46.2551 10.7196 46.0736 10.6591 45.8648 10.6591C45.5963 10.6591 45.3883 10.7403 45.2409 10.9027C45.0934 11.0634 45.0196 11.2673 45.0196 11.5142V14H44.423V11.3849C44.423 11.1679 44.3526 10.993 44.2117 10.8604C44.0709 10.7262 43.8894 10.6591 43.6673 10.6591C43.5149 10.6591 43.3724 10.6997 43.2398 10.7809C43.1089 10.8621 43.0028 10.9748 42.9216 11.119C42.8421 11.2615 42.8023 11.4264 42.8023 11.6136V14H42.2156ZM48.8863 8.90909V14H48.2996V8.90909H48.8863Z" fill="#CDCDCD"/>
<g clip-path="url(#clip0_2_89)">
<path d="M9.02363 16.5335L8 4.02339L20.2248 4.04852L19.1424 16.5335L14.1585 17.9766L9.02363 16.5335Z" fill="#E34F26"/>
<path d="M14.1585 16.7684V5.21481L19.1928 5.23157L18.2951 15.5685L14.1585 16.7684Z" fill="#EF652A"/>
<path d="M17.8084 8.10115L17.951 6.57403H10.2067L10.6345 11.2559H15.9792L15.7696 13.2528L14.058 13.7142L12.3212 13.2108L12.2289 12.0194H10.6933L10.9031 14.4526L14.0579 15.3336L17.2378 14.4526L17.6657 9.70368H12.0526L11.8932 8.10115H17.8084Z" fill="white"/>
</g>
<defs>
<clipPath id="clip0_2_89">
<rect width="12.2248" height="14" fill="white" transform="translate(8 4)"/>
</clipPath>
</defs>
</svg>
