<svg width="70" height="22" viewBox="0 0 70 22" fill="none" xmlns="http://www.w3.org/2000/svg">
<rect width="70" height="22" rx="11" fill="#232323"/>
<path d="M29.5369 10.1818H30.1236V14.2784C30.1236 14.5137 30.083 14.7176 30.0018 14.8899C29.9222 15.0623 29.8013 15.1957 29.6388 15.2901C29.4781 15.3846 29.2751 15.4318 29.0298 15.4318C29.0099 15.4318 28.9901 15.4318 28.9702 15.4318C28.9503 15.4318 28.9304 15.4318 28.9105 15.4318V14.8849C28.9304 14.8849 28.9486 14.8849 28.9652 14.8849C28.9818 14.8849 29 14.8849 29.0199 14.8849C29.1989 14.8849 29.3298 14.8319 29.4126 14.7259C29.4955 14.6214 29.5369 14.4723 29.5369 14.2784V10.1818ZM29.8253 9.54545C29.7109 9.54545 29.6123 9.50651 29.5295 9.42862C29.4483 9.35073 29.4077 9.2571 29.4077 9.14773C29.4077 9.03835 29.4483 8.94472 29.5295 8.86683C29.6123 8.78894 29.7109 8.75 29.8253 8.75C29.9396 8.75 30.0374 8.78894 30.1186 8.86683C30.2015 8.94472 30.2429 9.03835 30.2429 9.14773C30.2429 9.2571 30.2015 9.35073 30.1186 9.42862C30.0374 9.50651 29.9396 9.54545 29.8253 9.54545ZM32.3216 14.0895C32.0797 14.0895 31.8601 14.0439 31.6629 13.9528C31.4657 13.86 31.3091 13.7266 31.1931 13.5526C31.0771 13.3769 31.0191 13.1648 31.0191 12.9162C31.0191 12.6974 31.0622 12.5201 31.1483 12.3842C31.2345 12.2467 31.3497 12.139 31.4939 12.0611C31.6381 11.9832 31.7971 11.9252 31.9711 11.8871C32.1468 11.8473 32.3233 11.8158 32.5006 11.7926C32.7326 11.7628 32.9207 11.7404 33.0649 11.7255C33.2107 11.7089 33.3168 11.6816 33.3831 11.6435C33.451 11.6054 33.485 11.5391 33.485 11.4446V11.4247C33.485 11.1795 33.4179 10.9889 33.2836 10.853C33.1511 10.7171 32.9497 10.6491 32.6796 10.6491C32.3995 10.6491 32.18 10.7105 32.0209 10.8331C31.8618 10.9557 31.7499 11.0866 31.6853 11.2259L31.1285 11.027C31.2279 10.795 31.3605 10.6143 31.5262 10.4851C31.6936 10.3542 31.8759 10.263 32.0731 10.2116C32.2719 10.1586 32.4675 10.1321 32.6597 10.1321C32.7823 10.1321 32.9232 10.147 33.0823 10.1768C33.243 10.205 33.398 10.2638 33.5471 10.3533C33.6979 10.4428 33.8231 10.5779 33.9225 10.7585C34.0219 10.9392 34.0716 11.1811 34.0716 11.4844V14H33.485V13.483H33.4552C33.4154 13.5658 33.3491 13.6545 33.2563 13.7489C33.1635 13.8434 33.04 13.9238 32.8859 13.9901C32.7318 14.0563 32.5437 14.0895 32.3216 14.0895ZM32.4111 13.5625C32.6431 13.5625 32.8387 13.5169 32.9978 13.4258C33.1585 13.3346 33.2795 13.217 33.3607 13.0728C33.4436 12.9286 33.485 12.777 33.485 12.6179V12.081C33.4601 12.1108 33.4055 12.1381 33.3209 12.163C33.2381 12.1862 33.142 12.2069 33.0326 12.2251C32.9249 12.2417 32.8196 12.2566 32.7169 12.2699C32.6158 12.2815 32.5338 12.2914 32.4708 12.2997C32.3183 12.3196 32.1758 12.3519 32.0432 12.3967C31.9123 12.4397 31.8063 12.5052 31.7251 12.593C31.6455 12.6792 31.6057 12.7969 31.6057 12.946C31.6057 13.1499 31.6811 13.304 31.8319 13.4084C31.9844 13.5111 32.1775 13.5625 32.4111 13.5625ZM38.1278 10.1818L36.7159 14H36.1193L34.7074 10.1818H35.3438L36.3977 13.2244H36.4375L37.4915 10.1818H38.1278ZM39.9095 14.0895C39.6676 14.0895 39.448 14.0439 39.2508 13.9528C39.0536 13.86 38.897 13.7266 38.781 13.5526C38.665 13.3769 38.607 13.1648 38.607 12.9162C38.607 12.6974 38.6501 12.5201 38.7362 12.3842C38.8224 12.2467 38.9376 12.139 39.0818 12.0611C39.2259 11.9832 39.385 11.9252 39.559 11.8871C39.7347 11.8473 39.9112 11.8158 40.0885 11.7926C40.3205 11.7628 40.5086 11.7404 40.6528 11.7255C40.7986 11.7089 40.9047 11.6816 40.971 11.6435C41.0389 11.6054 41.0729 11.5391 41.0729 11.4446V11.4247C41.0729 11.1795 41.0058 10.9889 40.8715 10.853C40.739 10.7171 40.5376 10.6491 40.2675 10.6491C39.9874 10.6491 39.7678 10.7105 39.6088 10.8331C39.4497 10.9557 39.3378 11.0866 39.2732 11.2259L38.7164 11.027C38.8158 10.795 38.9484 10.6143 39.1141 10.4851C39.2815 10.3542 39.4637 10.263 39.661 10.2116C39.8598 10.1586 40.0554 10.1321 40.2476 10.1321C40.3702 10.1321 40.5111 10.147 40.6702 10.1768C40.8309 10.205 40.9859 10.2638 41.135 10.3533C41.2858 10.4428 41.411 10.5779 41.5104 10.7585C41.6098 10.9392 41.6595 11.1811 41.6595 11.4844V14H41.0729V13.483H41.0431C41.0033 13.5658 40.937 13.6545 40.8442 13.7489C40.7514 13.8434 40.6279 13.9238 40.4738 13.9901C40.3197 14.0563 40.1316 14.0895 39.9095 14.0895ZM39.999 13.5625C40.231 13.5625 40.4266 13.5169 40.5857 13.4258C40.7464 13.3346 40.8674 13.217 40.9486 13.0728C41.0315 12.9286 41.0729 12.777 41.0729 12.6179V12.081C41.048 12.1108 40.9933 12.1381 40.9088 12.163C40.826 12.1862 40.7298 12.2069 40.6205 12.2251C40.5128 12.2417 40.4075 12.2566 40.3048 12.2699C40.2037 12.2815 40.1217 12.2914 40.0587 12.2997C39.9062 12.3196 39.7637 12.3519 39.6311 12.3967C39.5002 12.4397 39.3941 12.5052 39.3129 12.593C39.2334 12.6792 39.1936 12.7969 39.1936 12.946C39.1936 13.1499 39.269 13.304 39.4198 13.4084C39.5723 13.5111 39.7654 13.5625 39.999 13.5625ZM45.4348 11.0369L44.9078 11.1861C44.8747 11.0982 44.8258 11.0129 44.7612 10.93C44.6982 10.8455 44.612 10.7759 44.5027 10.7212C44.3933 10.6665 44.2533 10.6392 44.0826 10.6392C43.8489 10.6392 43.6542 10.6931 43.4984 10.8008C43.3443 10.9068 43.2672 11.0419 43.2672 11.206C43.2672 11.3518 43.3203 11.467 43.4263 11.5515C43.5324 11.636 43.6981 11.7064 43.9235 11.7628L44.4902 11.902C44.8316 11.9848 45.086 12.1116 45.2534 12.2823C45.4208 12.4513 45.5044 12.6693 45.5044 12.9361C45.5044 13.1548 45.4415 13.3504 45.3155 13.5227C45.1912 13.6951 45.0172 13.831 44.7935 13.9304C44.5698 14.0298 44.3096 14.0795 44.013 14.0795C43.6235 14.0795 43.3012 13.995 43.046 13.826C42.7908 13.657 42.6292 13.41 42.5613 13.0852L43.1181 12.946C43.1711 13.1515 43.2714 13.3056 43.4189 13.4084C43.568 13.5111 43.7627 13.5625 44.003 13.5625C44.2765 13.5625 44.4935 13.5045 44.6543 13.3885C44.8167 13.2708 44.8979 13.13 44.8979 12.9659C44.8979 12.8333 44.8515 12.7223 44.7587 12.6328C44.6659 12.5417 44.5234 12.4737 44.3311 12.429L43.6948 12.2798C43.3451 12.197 43.0882 12.0685 42.9242 11.8945C42.7618 11.7189 42.6806 11.4993 42.6806 11.2358C42.6806 11.0204 42.7411 10.8298 42.862 10.6641C42.9847 10.4983 43.1512 10.3683 43.3617 10.2738C43.5738 10.1793 43.8141 10.1321 44.0826 10.1321C44.4604 10.1321 44.757 10.215 44.9725 10.3807C45.1896 10.5464 45.3437 10.7652 45.4348 11.0369ZM47.9387 14.0795C47.5807 14.0795 47.2725 13.995 47.0139 13.826C46.7554 13.657 46.5566 13.4241 46.4173 13.1275C46.2781 12.8308 46.2085 12.492 46.2085 12.1108C46.2085 11.723 46.2798 11.3808 46.4223 11.0842C46.5665 10.7859 46.767 10.553 47.0239 10.3857C47.2824 10.2166 47.584 10.1321 47.9287 10.1321C48.1972 10.1321 48.4391 10.1818 48.6546 10.2812C48.87 10.3807 49.0465 10.5199 49.184 10.6989C49.3216 10.8778 49.4069 11.0866 49.4401 11.3253H48.8534C48.8087 11.1513 48.7093 10.9972 48.5551 10.8629C48.4027 10.727 48.1972 10.6591 47.9387 10.6591C47.71 10.6591 47.5094 10.7187 47.3371 10.8381C47.1664 10.9557 47.033 11.1223 46.9369 11.3377C46.8424 11.5515 46.7952 11.8026 46.7952 12.0909C46.7952 12.3859 46.8416 12.6428 46.9344 12.8615C47.0289 13.0803 47.1614 13.2501 47.3321 13.3711C47.5045 13.4921 47.7066 13.5526 47.9387 13.5526C48.0911 13.5526 48.2295 13.526 48.3538 13.473C48.4781 13.42 48.5833 13.3438 48.6695 13.2443C48.7557 13.1449 48.817 13.0256 48.8534 12.8864H49.4401C49.4069 13.1117 49.3249 13.3147 49.194 13.4954C49.0647 13.6744 48.8932 13.8169 48.6794 13.9229C48.4673 14.0273 48.2204 14.0795 47.9387 14.0795ZM50.2977 14V10.1818H50.8644V10.7585H50.9042C50.9738 10.5696 51.0998 10.4163 51.282 10.2987C51.4643 10.181 51.6698 10.1222 51.8985 10.1222C51.9416 10.1222 51.9955 10.123 52.0601 10.1246C52.1247 10.1263 52.1736 10.1288 52.2068 10.1321V10.7287C52.1869 10.7237 52.1413 10.7163 52.07 10.7063C52.0004 10.6947 51.9267 10.6889 51.8488 10.6889C51.6632 10.6889 51.4975 10.7279 51.3517 10.8058C51.2075 10.882 51.0931 10.988 51.0086 11.1239C50.9258 11.2582 50.8843 11.4115 50.8843 11.5838V14H50.2977ZM52.9022 14V10.1818H53.4888V14H52.9022ZM53.2005 9.54545C53.0861 9.54545 52.9875 9.50651 52.9047 9.42862C52.8234 9.35073 52.7828 9.2571 52.7828 9.14773C52.7828 9.03835 52.8234 8.94472 52.9047 8.86683C52.9875 8.78894 53.0861 8.75 53.2005 8.75C53.3148 8.75 53.4126 8.78894 53.4938 8.86683C53.5766 8.94472 53.6181 9.03835 53.6181 9.14773C53.6181 9.2571 53.5766 9.35073 53.4938 9.42862C53.4126 9.50651 53.3148 9.54545 53.2005 9.54545ZM54.5633 15.4318V10.1818H55.1301V10.7884H55.1997C55.2427 10.7221 55.3024 10.6375 55.3786 10.5348C55.4565 10.4304 55.5676 10.3376 55.7117 10.2564C55.8576 10.1735 56.0548 10.1321 56.3034 10.1321C56.6249 10.1321 56.9082 10.2125 57.1535 10.3732C57.3988 10.534 57.5902 10.7618 57.7277 11.0568C57.8653 11.3518 57.934 11.6998 57.934 12.1009C57.934 12.5052 57.8653 12.8557 57.7277 13.1523C57.5902 13.4473 57.3996 13.676 57.156 13.8384C56.9124 13.9992 56.6315 14.0795 56.3133 14.0795C56.068 14.0795 55.8717 14.0389 55.7242 13.9577C55.5767 13.8749 55.4632 13.7812 55.3836 13.6768C55.3041 13.5708 55.2427 13.483 55.1997 13.4134H55.1499V15.4318H54.5633ZM55.14 12.0909C55.14 12.3793 55.1823 12.6336 55.2668 12.854C55.3513 13.0728 55.4748 13.2443 55.6372 13.3686C55.7996 13.4912 55.9984 13.5526 56.2338 13.5526C56.479 13.5526 56.6837 13.4879 56.8477 13.3587C57.0135 13.2277 57.1378 13.0521 57.2206 12.8317C57.3051 12.6096 57.3474 12.3627 57.3474 12.0909C57.3474 11.8224 57.306 11.5805 57.2231 11.3651C57.1419 11.148 57.0184 10.9764 56.8527 10.8505C56.6887 10.7229 56.4823 10.6591 56.2338 10.6591C55.9951 10.6591 55.7946 10.7196 55.6322 10.8406C55.4698 10.9599 55.3472 11.1272 55.2643 11.3427C55.1814 11.5565 55.14 11.8059 55.14 12.0909ZM60.4894 10.1818V10.679H58.5107V10.1818H60.4894ZM59.0874 9.26705H59.6741V12.9062C59.6741 13.072 59.6981 13.1963 59.7462 13.2791C59.7959 13.3603 59.8589 13.415 59.9351 13.4432C60.013 13.4697 60.095 13.483 60.1812 13.483C60.2458 13.483 60.2989 13.4796 60.3403 13.473C60.3817 13.4647 60.4149 13.4581 60.4397 13.4531L60.559 13.9801C60.5193 13.995 60.4637 14.0099 60.3925 14.0249C60.3212 14.0414 60.2309 14.0497 60.1215 14.0497C59.9558 14.0497 59.7934 14.0141 59.6343 13.9428C59.4769 13.8716 59.346 13.763 59.2416 13.6172C59.1388 13.4714 59.0874 13.2874 59.0874 13.0653V9.26705Z" fill="#CDCDCD"/>
<g clip-path="url(#clip0_2_86)">
<path d="M7 4H21V18H7V4Z" fill="#F0DB4F"/>
<path d="M19.8542 14.661C19.7517 14.0222 19.3352 13.4859 18.1015 12.9856C17.673 12.7886 17.1952 12.6475 17.0529 12.3228C17.0023 12.1338 16.9956 12.0274 17.0276 11.9129C17.1194 11.5416 17.5625 11.4259 17.9139 11.5323C18.1401 11.6082 18.3544 11.7825 18.4835 12.0606C19.0876 11.6694 19.0863 11.6721 19.5082 11.4032C19.3538 11.1637 19.2713 11.0532 19.1702 10.9508C18.8068 10.5449 18.3118 10.3359 17.52 10.3519C17.3829 10.3692 17.2445 10.3878 17.1074 10.4051C16.7122 10.505 16.3356 10.7126 16.1146 10.9907C15.4519 11.7426 15.6409 13.0587 16.4473 13.6004C17.2418 14.1966 18.4089 14.3323 18.558 14.8899C18.703 15.5726 18.0563 15.7935 17.4135 15.715C16.9397 15.6166 16.6762 15.3757 16.3914 14.9378C15.8671 15.2413 15.8671 15.2413 15.3281 15.5513C15.4559 15.8308 15.5903 15.9572 15.8046 16.1994C16.8186 17.2282 19.3565 17.1776 19.8116 15.6205C19.8302 15.5673 19.9527 15.2106 19.8542 14.661ZM14.6108 10.4344H13.3013C13.3013 11.5656 13.296 12.6888 13.296 13.82C13.296 14.5399 13.3333 15.2 13.2162 15.4023C13.0245 15.8002 12.5281 15.751 12.3019 15.6738C12.0717 15.5606 11.9546 15.3996 11.8188 15.1721C11.7816 15.1068 11.7536 15.0563 11.7443 15.0523C11.389 15.2692 11.035 15.4874 10.6797 15.7044C10.8567 16.0677 11.1175 16.3831 11.4515 16.588C11.9506 16.8874 12.6213 16.9793 13.3226 16.8182C13.7791 16.6852 14.173 16.4097 14.3793 15.9905C14.6774 15.4409 14.6135 14.7755 14.6108 14.0395C14.6175 12.8392 14.6108 11.6388 14.6108 10.4344Z" fill="#323330"/>
</g>
<defs>
<clipPath id="clip0_2_86">
<rect x="7" y="4" width="14" height="14" rx="2" fill="white"/>
</clipPath>
</defs>
</svg>
