<svg width="70" height="22" viewBox="0 0 70 22" fill="none" xmlns="http://www.w3.org/2000/svg">
<rect width="70" height="22" rx="11" fill="#2b2e35"/>
<path d="M31.1974 10.1818V10.679H29.2188V10.1818H31.1974ZM29.7955 9.26705H30.3821V12.9062C30.3821 13.072 30.4061 13.1963 30.4542 13.2791C30.5039 13.3603 30.5669 13.415 30.6431 13.4432C30.721 13.4697 30.803 13.483 30.8892 13.483C30.9538 13.483 31.0069 13.4796 31.0483 13.473C31.0897 13.4647 31.1229 13.4581 31.1477 13.4531L31.267 13.9801C31.2273 13.995 31.1718 14.0099 31.1005 14.0249C31.0292 14.0414 30.9389 14.0497 30.8295 14.0497C30.6638 14.0497 30.5014 14.0141 30.3423 13.9428C30.1849 13.8716 30.054 13.763 29.9496 13.6172C29.8468 13.4714 29.7955 13.2874 29.7955 13.0653V9.26705ZM33.2035 14.0895C32.9615 14.0895 32.742 14.0439 32.5447 13.9528C32.3475 13.86 32.1909 13.7266 32.0749 13.5526C31.9589 13.3769 31.9009 13.1648 31.9009 12.9162C31.9009 12.6974 31.944 12.5201 32.0302 12.3842C32.1164 12.2467 32.2315 12.139 32.3757 12.0611C32.5199 11.9832 32.679 11.9252 32.853 11.8871C33.0286 11.8473 33.2051 11.8158 33.3825 11.7926C33.6145 11.7628 33.8026 11.7404 33.9467 11.7255C34.0926 11.7089 34.1986 11.6816 34.2649 11.6435C34.3329 11.6054 34.3668 11.5391 34.3668 11.4446V11.4247C34.3668 11.1795 34.2997 10.9889 34.1655 10.853C34.0329 10.7171 33.8316 10.6491 33.5614 10.6491C33.2814 10.6491 33.0618 10.7105 32.9027 10.8331C32.7436 10.9557 32.6317 11.0866 32.5671 11.2259L32.0103 11.027C32.1097 10.795 32.2423 10.6143 32.408 10.4851C32.5754 10.3542 32.7577 10.263 32.9549 10.2116C33.1538 10.1586 33.3493 10.1321 33.5415 10.1321C33.6642 10.1321 33.805 10.147 33.9641 10.1768C34.1249 10.205 34.2798 10.2638 34.429 10.3533C34.5798 10.4428 34.7049 10.5779 34.8043 10.7585C34.9038 10.9392 34.9535 11.1811 34.9535 11.4844V14H34.3668V13.483H34.337C34.2972 13.5658 34.2309 13.6545 34.1381 13.7489C34.0453 13.8434 33.9219 13.9238 33.7678 13.9901C33.6136 14.0563 33.4255 14.0895 33.2035 14.0895ZM33.293 13.5625C33.525 13.5625 33.7205 13.5169 33.8796 13.4258C34.0404 13.3346 34.1613 13.217 34.2425 13.0728C34.3254 12.9286 34.3668 12.777 34.3668 12.6179V12.081C34.342 12.1108 34.2873 12.1381 34.2028 12.163C34.1199 12.1862 34.0238 12.2069 33.9144 12.2251C33.8067 12.2417 33.7015 12.2566 33.5987 12.2699C33.4976 12.2815 33.4156 12.2914 33.3526 12.2997C33.2002 12.3196 33.0576 12.3519 32.9251 12.3967C32.7942 12.4397 32.6881 12.5052 32.6069 12.593C32.5273 12.6792 32.4876 12.7969 32.4876 12.946C32.4876 13.1499 32.563 13.304 32.7138 13.4084C32.8662 13.5111 33.0593 13.5625 33.293 13.5625ZM36.0242 14V10.1818H36.6109V14H36.0242ZM36.3225 9.54545C36.2082 9.54545 36.1096 9.50651 36.0267 9.42862C35.9455 9.35073 35.9049 9.2571 35.9049 9.14773C35.9049 9.03835 35.9455 8.94472 36.0267 8.86683C36.1096 8.78894 36.2082 8.75 36.3225 8.75C36.4369 8.75 36.5347 8.78894 36.6159 8.86683C36.6987 8.94472 36.7401 9.03835 36.7401 9.14773C36.7401 9.2571 36.6987 9.35073 36.6159 9.42862C36.5347 9.50651 36.4369 9.54545 36.3225 9.54545ZM38.272 8.90909V14H37.6854V8.90909H38.272ZM40.2116 14L39.0482 10.1818H39.6647L40.49 13.1051H40.5297L41.3451 10.1818H41.9715L42.7769 13.0952H42.8167L43.642 10.1818H44.2584L43.0951 14H42.5184L41.6831 11.0668H41.6235L40.7883 14H40.2116ZM45.034 14V10.1818H45.6206V14H45.034ZM45.3323 9.54545C45.218 9.54545 45.1193 9.50651 45.0365 9.42862C44.9553 9.35073 44.9147 9.2571 44.9147 9.14773C44.9147 9.03835 44.9553 8.94472 45.0365 8.86683C45.1193 8.78894 45.218 8.75 45.3323 8.75C45.4466 8.75 45.5444 8.78894 45.6256 8.86683C45.7085 8.94472 45.7499 9.03835 45.7499 9.14773C45.7499 9.2571 45.7085 9.35073 45.6256 9.42862C45.5444 9.50651 45.4466 9.54545 45.3323 9.54545ZM47.2818 11.7031V14H46.6951V10.1818H47.2619V10.7784H47.3116C47.4011 10.5845 47.537 10.4287 47.7193 10.3111C47.9016 10.1918 48.1369 10.1321 48.4252 10.1321C48.6838 10.1321 48.91 10.1851 49.1039 10.2912C49.2978 10.3956 49.4486 10.5547 49.5563 10.7685C49.664 10.9806 49.7179 11.2491 49.7179 11.5739V14H49.1312V11.6136C49.1312 11.3137 49.0533 11.08 48.8975 10.9126C48.7418 10.7436 48.528 10.6591 48.2562 10.6591C48.069 10.6591 47.9016 10.6997 47.7541 10.7809C47.6083 10.8621 47.4931 10.9806 47.4086 11.1364C47.324 11.2921 47.2818 11.4811 47.2818 11.7031ZM52.2316 14.0795C51.9134 14.0795 51.6325 13.9992 51.3889 13.8384C51.1453 13.676 50.9548 13.4473 50.8172 13.1523C50.6797 12.8557 50.6109 12.5052 50.6109 12.1009C50.6109 11.6998 50.6797 11.3518 50.8172 11.0568C50.9548 10.7618 51.1462 10.534 51.3914 10.3732C51.6367 10.2125 51.9201 10.1321 52.2416 10.1321C52.4901 10.1321 52.6865 10.1735 52.8307 10.2564C52.9765 10.3376 53.0876 10.4304 53.1638 10.5348C53.2417 10.6375 53.3022 10.7221 53.3453 10.7884H53.395V8.90909H53.9816V14H53.4149V13.4134H53.3453C53.3022 13.483 53.2409 13.5708 53.1613 13.6768C53.0818 13.7812 52.9682 13.8749 52.8208 13.9577C52.6733 14.0389 52.4769 14.0795 52.2316 14.0795ZM52.3112 13.5526C52.5465 13.5526 52.7454 13.4912 52.9078 13.3686C53.0702 13.2443 53.1936 13.0728 53.2781 12.854C53.3627 12.6336 53.4049 12.3793 53.4049 12.0909C53.4049 11.8059 53.3635 11.5565 53.2806 11.3427C53.1978 11.1272 53.0751 10.9599 52.9127 10.8406C52.7503 10.7196 52.5498 10.6591 52.3112 10.6591C52.0626 10.6591 51.8554 10.7229 51.6897 10.8505C51.5257 10.9764 51.4022 11.148 51.3193 11.3651C51.2381 11.5805 51.1975 11.8224 51.1975 12.0909C51.1975 12.3627 51.239 12.6096 51.3218 12.8317C51.4063 13.0521 51.5306 13.2277 51.6947 13.3587C51.8604 13.4879 52.0659 13.5526 52.3112 13.5526Z" fill="#CDCDCD"/>
<g clip-path="url(#clip0_2_87)">
<path d="M14.6711 7C12.8928 7 11.7814 7.88891 11.3368 9.66656C12.0037 8.77765 12.7817 8.44443 13.6708 8.66658C14.1781 8.79332 14.5407 9.1614 14.9421 9.56866C15.5959 10.2321 16.3525 10.9999 18.0054 10.9999C19.7836 10.9999 20.8951 10.111 21.3396 8.33319C20.6728 9.2221 19.8948 9.55548 19.0056 9.33334C18.4984 9.20659 18.1359 8.83852 17.7344 8.43126C17.0807 7.76783 16.3238 7 14.6711 7ZM11.3368 10.9999C9.55865 10.9999 8.44709 11.8888 8.00264 13.6666C8.6694 12.7777 9.44741 12.4444 10.3366 12.6667C10.8438 12.7936 11.2064 13.1615 11.6078 13.5686C12.2616 14.232 13.0184 15 14.6711 15C16.4494 15 17.5608 14.1111 18.0054 12.3333C17.3385 13.2222 16.5605 13.5556 15.6714 13.3333C15.1641 13.2067 14.8015 12.8384 14.4001 12.4313C13.7463 11.7679 12.9897 10.9999 11.3368 10.9999Z" fill="#06B6D4"/>
</g>
<defs>
<clipPath id="clip0_2_87">
<rect width="13.3422" height="8" fill="white" transform="translate(8 7)"/>
</clipPath>
</defs>
</svg>
